<svg width="760" height="760" viewBox="0 0 760 760" fill="none" xmlns="http://www.w3.org/2000/svg">
  <rect width="760" height="760" fill="none"/>
  <g filter="url(#shadow)">
    <path d="M391 82c52 8 70 61 105 91 36 30 99 34 119 78 20 43-18 93-16 141 2 52 50 107 25 152-25 46-96 35-143 56-43 19-73 72-119 68-47-4-68-61-106-88-39-28-103-21-128-61-25-41 13-94 11-142-2-47-45-97-24-139 21-43 87-37 130-60 50-27 88-105 146-96Z" fill="#121212"/>
    <path d="M415 95c48 13 60 66 92 96 32 30 90 39 106 81 16 40-22 84-23 129-1 49 40 103 13 142-27 40-90 24-135 41-41 16-73 62-115 55-43-7-57-62-90-91-34-30-94-29-112-68-18-38 22-84 24-127 3-43-32-92-9-129 23-37 84-27 126-47 49-23 71-96 123-82Z" fill="#49FF82"/>
    <path d="M300 146c21-22 54 2 82-2 26-4 48-39 75-27 27 12 24 54 41 77 18 25 60 32 65 62 5 30-31 51-40 80-9 29 10 67-12 89-22 22-57-2-87 3-28 4-53 39-80 26-27-13-22-56-39-81-18-27-63-35-65-67-2-31 39-49 50-78 10-28-12-60 10-82Z" fill="#FF3EA5"/>
    <path d="M471 326c16-16 43 0 64-5 21-5 35-34 57-28 22 6 24 40 40 55 16 16 50 18 57 40 7 21-20 40-23 62-3 24 19 51 5 70-15 20-49 8-72 18-22 9-36 39-59 34-23-5-27-39-43-56-16-18-50-22-56-45-6-22 24-39 30-61 7-24-16-67 0-84Z" fill="#2DE2E6"/>
    <path d="M196 402c18-9 36 12 55 15 21 3 47-14 63 0 17 14 4 44 12 64 8 20 35 35 30 57-5 22-36 26-51 41-16 16-20 47-41 53-22 6-40-22-62-28-22-6-52 8-68-8-15-17 4-43 4-65 0-23-22-47-12-67 10-21 48-19 70-62Z" fill="#FF7A1A"/>
    <path d="M333 612c13-11 36-3 43 12 8 17-7 36-26 36-17 0-29-12-30-28-1-8 5-15 13-20Z" fill="#FFE251"/>
    <path d="M567 171c11-7 29-3 35 10 7 14-4 30-20 31-14 1-26-7-29-20-2-9 5-16 14-21Z" fill="#FFE251"/>
    <path d="M162 229c12-14 37-9 45 8 8 18-8 38-28 37-18-1-31-14-31-31 0-5 3-10 14-14Z" fill="#2DE2E6"/>
  </g>
  <path d="M101 594c50 23 96 36 148 42M539 115c42 12 78 31 113 61M88 292c32-32 65-53 108-71M613 589c-31 26-63 45-103 59" stroke="#121212" stroke-width="14" stroke-linecap="round" stroke-dasharray="1 30"/>
  <path d="M248 129c58-42 133-55 201-35M140 483c-24-63-16-141 21-196M575 259c36 67 33 151-8 220M438 642c-72 25-153 10-213-34" stroke="#121212" stroke-width="10" stroke-linecap="round"/>
  <defs>
    <filter id="shadow" x="61" y="37" width="626" height="677" filterUnits="userSpaceOnUse" color-interpolation-filters="sRGB">
      <feDropShadow dx="18" dy="22" stdDeviation="0" flood-color="#121212" flood-opacity="0.16"/>
    </filter>
  </defs>
</svg>
